<svg width="368" height="232" viewBox="0 0 368 232" fill="none" xmlns="http://www.w3.org/2000/svg">
<path d="M0 20C0 8.9543 8.95431 0 20 0H50.7586V149.103H0V20Z" fill="#014874"/>
<path d="M219.69 10C219.69 4.47715 224.167 0 229.69 0H276V149.103H219.69V10Z" fill="#1D70B6"/>
<rect x="288.69" width="71.3793" height="74.5517" rx="35.6897" fill="#1D70B6"/>
<rect x="293.448" y="71.3793" width="74.5517" height="77.7241" rx="37.2759" fill="#1D70B6"/>
<path d="M264.897 10C264.897 4.47715 269.374 0 274.897 0H314.965C333.743 0 348.966 15.2223 348.966 34V40.5517C348.966 59.3294 333.743 74.5517 314.966 74.5517H274.897C269.374 74.5517 264.897 70.0746 264.897 64.5517V10Z" fill="#1D70B6"/>
<path d="M268.069 81.3793C268.069 75.8565 272.546 71.3793 278.069 71.3793H322.103C340.881 71.3793 356.103 86.6016 356.103 105.379V115.103C356.103 133.881 340.881 149.103 322.103 149.103H278.069C272.546 149.103 268.069 144.626 268.069 139.103V81.3793Z" fill="#1D70B6"/>
<path d="M283.931 34.1034H312.483C319.053 34.1034 324.379 39.4297 324.379 46C324.379 52.5703 319.053 57.8965 312.483 57.8965H283.931V34.1034Z" fill="white"/>
<path d="M283.931 98.3448H312.483C319.053 98.3448 324.379 103.671 324.379 110.241C324.379 116.812 319.053 122.138 312.483 122.138H283.931V98.3448Z" fill="white"/>
<path d="M207.986 130.517C211.675 132.129 214.741 134.918 216.498 136.884L192.51 147.57L191.22 148.145L191.716 149.467C191.997 150.213 192.553 153.05 191.659 156.917C190.285 162.864 193.142 168.613 199.921 172.42C203.514 174.439 206.397 174.21 208.744 173.719C209.23 173.618 209.642 173.519 210.017 173.43C210.597 173.291 211.088 173.174 211.624 173.099C212.401 172.991 212.984 173.033 213.53 173.275C216.738 174.699 219.916 174.483 221.243 174.152L221.267 174.146L221.291 174.139C221.772 174.002 222.351 173.667 222.963 173.252C223.621 172.804 224.459 172.163 225.491 171.284C227.554 169.526 230.44 166.776 234.274 162.628C238.004 158.593 241.059 156.26 243.314 154.974C244.441 154.332 245.352 153.96 246.034 153.764C246.52 153.624 246.847 153.586 247.033 153.581C258.288 159.341 272.688 163.091 284.052 165.213C289.793 166.284 294.8 166.948 298.291 167.243C300.025 167.39 301.432 167.451 302.381 167.416C302.814 167.4 303.311 167.361 303.708 167.23C303.82 167.194 303.976 167.133 304.139 167.032C304.293 166.936 304.549 166.744 304.729 166.407C304.85 166.178 304.91 165.931 304.914 165.687L305.268 165.805L305.418 165.855L305.576 165.872C306.798 166.008 308.617 166.137 310.048 166.057C310.707 166.021 311.52 165.932 312.136 165.642C312.428 165.504 312.974 165.182 313.213 164.516C313.864 164.641 314.614 164.839 315.215 165.024L315.392 165.078L315.576 165.088C316.866 165.155 318.781 165.162 320.217 164.92C320.584 164.858 320.959 164.774 321.303 164.654C321.624 164.542 322.039 164.359 322.385 164.037C322.777 163.671 323.112 163.081 323.014 162.338C323.008 162.291 323 162.244 322.99 162.198C327.262 163.535 330.865 163.796 333.633 163.549C335.13 163.416 336.393 163.133 337.39 162.785C338.343 162.452 339.185 162.013 339.715 161.484C340.044 161.156 340.408 160.607 340.35 159.876C340.295 159.184 339.887 158.721 339.601 158.473C339.249 158.167 338.791 157.935 338.335 157.755C345.459 156.842 349.183 153.835 350.307 151.591L351.626 148.956L348.719 149.44C347.085 149.712 345.436 149.824 343.876 149.828C345.302 149.366 346.67 148.787 347.9 148.174C349.449 147.401 350.837 146.546 351.917 145.736C352.456 145.332 352.936 144.925 353.326 144.532C353.695 144.16 354.066 143.719 354.29 143.24L355.988 139.607L352.323 141.234C352.323 141.234 352.164 141.292 351.753 141.383C351.379 141.466 350.872 141.561 350.244 141.656C348.989 141.846 347.282 142.033 345.232 142.136C341.13 142.343 335.698 142.213 329.806 141.13C322.453 139.777 313.563 136.373 306.366 133.075C302.779 131.431 299.645 129.829 297.369 128.547C296.229 127.905 295.323 127.354 294.69 126.925C294.372 126.71 294.145 126.541 293.999 126.418C293.985 126.406 293.972 126.395 293.96 126.385C293.96 126.365 293.964 126.347 293.97 126.323C294 126.209 294.112 125.954 294.487 125.517C295.254 124.624 296.703 123.432 299.106 121.633C301.758 119.647 303.776 119.847 304.726 120.189C304.813 120.659 304.979 121.176 305.276 121.634C305.559 122.071 306.01 122.524 306.682 122.74C307.357 122.957 308.047 122.869 308.677 122.617C309.533 122.275 310.212 121.612 310.723 120.895C311.246 120.164 311.667 119.276 311.977 118.321C312.593 116.417 312.819 114.078 312.367 111.823C312.098 110.48 311.19 109.562 310.193 108.963C309.208 108.371 308.01 108.006 306.833 107.775C304.835 107.382 302.62 107.325 300.934 107.401C299.485 105.585 297.324 104.637 294.971 104.231C292.314 103.772 289.227 103.965 286.128 104.492C280.308 105.481 274.097 107.711 269.852 109.591C251.865 95.87 236.759 80.6652 225.521 67.4782C214.103 54.082 206.765 42.8718 204.409 37.4695L203.436 35.236L201.88 37.1112L178.88 64.8344L178.329 65.4984L178.626 66.3084C182.333 76.42 188.212 91.7298 193.804 104.798C196.598 111.329 199.332 117.327 201.695 121.844C202.875 124.099 203.98 126.018 204.968 127.46C205.462 128.181 205.946 128.81 206.414 129.312C206.861 129.79 207.389 130.257 207.986 130.517ZM321.997 160.629C321.998 160.63 321.998 160.631 321.999 160.632C321.996 160.628 321.996 160.627 321.997 160.629Z" fill="#1D70B6" stroke="white" stroke-width="3"/>
<path d="M64.2414 10C64.2414 4.47715 68.7185 0 74.2414 0H120.552V149.103H64.2414V10Z" fill="#014874"/>
<rect x="133.241" width="71.3793" height="74.5517" rx="35.6897" fill="#014874"/>
<rect x="138" y="71.3793" width="74.5517" height="77.7241" rx="37.2759" fill="#014874"/>
<path d="M109.448 10C109.448 4.47715 113.925 0 119.448 0H159.517C178.295 0 193.517 15.2223 193.517 34V40.5517C193.517 59.3294 178.295 74.5517 159.517 74.5517H119.448C113.925 74.5517 109.448 70.0746 109.448 64.5517V10Z" fill="#014874"/>
<path d="M112.621 81.3793C112.621 75.8565 117.098 71.3793 122.621 71.3793H166.655C185.433 71.3793 200.655 86.6016 200.655 105.379V115.103C200.655 133.881 185.433 149.103 166.655 149.103H122.621C117.098 149.103 112.621 144.626 112.621 139.103V81.3793Z" fill="#014874"/>
<path d="M128.483 34.1034H157.034C163.605 34.1034 168.931 39.4297 168.931 46C168.931 52.5703 163.605 57.8965 157.035 57.8965H128.483V34.1034Z" fill="white"/>
<path d="M128.483 98.3448H157.034C163.605 98.3448 168.931 103.671 168.931 110.241C168.931 116.812 163.605 122.138 157.035 122.138H128.483V98.3448Z" fill="white"/>
<path d="M19.598 224V209.455H21.7926V222.111H28.3835V224H19.598ZM37.6271 219.476V213.091H39.7578V224H37.6697V222.111H37.5561C37.3052 222.693 36.9027 223.179 36.3487 223.567C35.7995 223.95 35.1153 224.142 34.2962 224.142C33.5954 224.142 32.9751 223.988 32.4354 223.68C31.9003 223.368 31.4789 222.906 31.1712 222.295C30.8681 221.685 30.7166 220.929 30.7166 220.03V213.091H32.8402V219.774C32.8402 220.518 33.0462 221.109 33.4581 221.55C33.87 221.99 34.4051 222.21 35.0632 222.21C35.4609 222.21 35.8563 222.111 36.2493 221.912C36.647 221.713 36.9761 221.412 37.2365 221.01C37.5017 220.607 37.6319 220.096 37.6271 219.476ZM47.185 228.318C46.3185 228.318 45.5728 228.205 44.9478 227.977C44.3275 227.75 43.8209 227.449 43.4279 227.075C43.0349 226.701 42.7414 226.292 42.5472 225.847L44.3725 225.094C44.5004 225.302 44.6708 225.522 44.8839 225.754C45.1017 225.991 45.3952 226.192 45.7646 226.358C46.1386 226.524 46.6192 226.607 47.2063 226.607C48.0112 226.607 48.6765 226.41 49.2021 226.017C49.7276 225.629 49.9904 225.009 49.9904 224.156V222.011H49.8555C49.7276 222.243 49.543 222.501 49.3015 222.786C49.0647 223.07 48.738 223.316 48.3214 223.524C47.9047 223.732 47.3626 223.837 46.695 223.837C45.8332 223.837 45.0567 223.635 44.3654 223.233C43.6789 222.826 43.1344 222.227 42.7319 221.436C42.3342 220.641 42.1353 219.663 42.1353 218.503C42.1353 217.343 42.3318 216.348 42.7248 215.52C43.1225 214.691 43.667 214.057 44.3583 213.616C45.0496 213.171 45.8332 212.949 46.7092 212.949C47.3862 212.949 47.9331 213.062 48.3498 213.29C48.7665 213.512 49.0908 213.773 49.3228 214.071C49.5595 214.369 49.7418 214.632 49.8697 214.859H50.0259V213.091H52.1069V224.241C52.1069 225.179 51.8891 225.948 51.4535 226.55C51.0179 227.151 50.4284 227.596 49.685 227.885C48.9464 228.174 48.113 228.318 47.185 228.318ZM47.1637 222.075C47.7745 222.075 48.2906 221.933 48.712 221.649C49.1381 221.36 49.4601 220.948 49.6779 220.413C49.9004 219.874 50.0117 219.227 50.0117 218.474C50.0117 217.741 49.9028 217.094 49.685 216.536C49.4672 215.977 49.1476 215.541 48.7262 215.229C48.3048 214.911 47.784 214.753 47.1637 214.753C46.5245 214.753 45.9918 214.919 45.5657 215.25C45.1396 215.577 44.8176 216.022 44.5998 216.585C44.3867 217.149 44.2802 217.778 44.2802 218.474C44.2802 219.189 44.3891 219.817 44.6069 220.357C44.8247 220.896 45.1467 221.318 45.5728 221.621C46.0037 221.924 46.534 222.075 47.1637 222.075ZM58.1296 224.241C57.4383 224.241 56.8133 224.114 56.2546 223.858C55.6959 223.598 55.2532 223.221 54.9265 222.729C54.6045 222.236 54.4435 221.633 54.4435 220.918C54.4435 220.302 54.5619 219.795 54.7987 219.398C55.0354 219 55.355 218.685 55.7575 218.453C56.1599 218.221 56.6097 218.046 57.1069 217.928C57.604 217.809 58.1107 217.719 58.6268 217.658C59.2802 217.582 59.8105 217.52 60.2177 217.473C60.6249 217.421 60.9208 217.338 61.1055 217.224C61.2901 217.111 61.3825 216.926 61.3825 216.67V216.621C61.3825 216 61.2073 215.52 60.8569 215.179C60.5112 214.838 59.9951 214.668 59.3086 214.668C58.5936 214.668 58.0302 214.826 57.6183 215.143C57.2111 215.456 56.9293 215.804 56.7731 216.188L54.7773 215.733C55.0141 215.07 55.3597 214.535 55.8143 214.128C56.2736 213.716 56.8015 213.418 57.3981 213.233C57.9947 213.044 58.622 212.949 59.2802 212.949C59.7158 212.949 60.1774 213.001 60.6651 213.105C61.1576 213.205 61.6168 213.389 62.043 213.659C62.4738 213.929 62.8266 214.315 63.1012 214.817C63.3758 215.314 63.5131 215.96 63.5131 216.756V224H61.4393V222.509H61.354C61.2167 222.783 61.0108 223.053 60.7362 223.318C60.4615 223.583 60.1088 223.804 59.6779 223.979C59.247 224.154 58.7309 224.241 58.1296 224.241ZM58.5913 222.537C59.1784 222.537 59.6803 222.421 60.0969 222.189C60.5183 221.957 60.838 221.654 61.0558 221.28C61.2783 220.901 61.3896 220.496 61.3896 220.065V218.659C61.3138 218.735 61.167 218.806 60.9492 218.872C60.7362 218.934 60.4923 218.988 60.2177 219.036C59.9431 219.078 59.6755 219.118 59.4151 219.156C59.1547 219.189 58.9369 219.218 58.7617 219.241C58.3498 219.294 57.9734 219.381 57.6325 219.504C57.2963 219.627 57.0264 219.805 56.8228 220.037C56.6239 220.264 56.5245 220.567 56.5245 220.946C56.5245 221.472 56.7186 221.869 57.1069 222.139C57.4951 222.404 57.9899 222.537 58.5913 222.537ZM66.3416 224V213.091H68.3942V214.824H68.5078C68.7067 214.237 69.0571 213.775 69.5589 213.439C70.0656 213.098 70.6385 212.928 71.2777 212.928C71.4103 212.928 71.5665 212.932 71.7464 212.942C71.9311 212.951 72.0755 212.963 72.1797 212.977V215.009C72.0945 214.985 71.9429 214.959 71.7251 214.93C71.5073 214.897 71.2895 214.881 71.0717 214.881C70.5698 214.881 70.1224 214.987 69.7294 215.2C69.3411 215.409 69.0334 215.7 68.8061 216.074C68.5788 216.443 68.4652 216.865 68.4652 217.338V224H66.3416ZM83.3942 224.213C82.5135 224.213 81.7275 223.988 81.0362 223.538C80.3497 223.084 79.8099 222.437 79.4169 221.599C79.0286 220.757 78.8345 219.746 78.8345 218.567C78.8345 217.388 79.031 216.379 79.424 215.541C79.8217 214.703 80.3662 214.062 81.0575 213.616C81.7488 213.171 82.5324 212.949 83.4084 212.949C84.0855 212.949 84.63 213.062 85.0419 213.29C85.4586 213.512 85.7805 213.773 86.0078 214.071C86.2398 214.369 86.4197 214.632 86.5476 214.859H86.6754V209.455H88.799V224H86.7251V222.303H86.5476C86.4197 222.535 86.2351 222.8 85.9936 223.098C85.7569 223.396 85.4302 223.657 85.0135 223.879C84.5968 224.102 84.0571 224.213 83.3942 224.213ZM83.8629 222.402C84.4737 222.402 84.9898 222.241 85.4112 221.919C85.8374 221.592 86.1593 221.14 86.3771 220.562C86.5997 219.985 86.7109 219.312 86.7109 218.545C86.7109 217.788 86.602 217.125 86.3842 216.557C86.1664 215.989 85.8468 215.546 85.4254 215.229C85.004 214.911 84.4832 214.753 83.8629 214.753C83.2237 214.753 82.6911 214.919 82.2649 215.25C81.8388 215.581 81.5168 216.034 81.299 216.607C81.0859 217.179 80.9794 217.826 80.9794 218.545C80.9794 219.275 81.0883 219.93 81.3061 220.513C81.5239 221.095 81.8459 221.557 82.272 221.898C82.7029 222.234 83.2332 222.402 83.8629 222.402ZM96.4251 224.22C95.4023 224.22 94.5098 223.986 93.7475 223.517C92.9852 223.048 92.3933 222.393 91.9719 221.55C91.5505 220.707 91.3398 219.722 91.3398 218.595C91.3398 217.464 91.5505 216.474 91.9719 215.626C92.3933 214.779 92.9852 214.121 93.7475 213.652C94.5098 213.183 95.4023 212.949 96.4251 212.949C97.4478 212.949 98.3403 213.183 99.1026 213.652C99.8649 214.121 100.457 214.779 100.878 215.626C101.3 216.474 101.51 217.464 101.51 218.595C101.51 219.722 101.3 220.707 100.878 221.55C100.457 222.393 99.8649 223.048 99.1026 223.517C98.3403 223.986 97.4478 224.22 96.4251 224.22ZM96.4322 222.438C97.0951 222.438 97.6443 222.262 98.0799 221.912C98.5155 221.562 98.8375 221.095 99.0458 220.513C99.2589 219.93 99.3654 219.289 99.3654 218.588C99.3654 217.892 99.2589 217.253 99.0458 216.67C98.8375 216.083 98.5155 215.612 98.0799 215.257C97.6443 214.902 97.0951 214.724 96.4322 214.724C95.7646 214.724 95.2106 214.902 94.7702 215.257C94.3346 215.612 94.0103 216.083 93.7972 216.67C93.5889 217.253 93.4847 217.892 93.4847 218.588C93.4847 219.289 93.5889 219.93 93.7972 220.513C94.0103 221.095 94.3346 221.562 94.7702 221.912C95.2106 222.262 95.7646 222.438 96.4322 222.438ZM210.738 224.213C209.857 224.213 209.071 223.988 208.38 223.538C207.693 223.084 207.154 222.437 206.761 221.599C206.372 220.757 206.178 219.746 206.178 218.567C206.178 217.388 206.375 216.379 206.768 215.541C207.165 214.703 207.71 214.062 208.401 213.616C209.093 213.171 209.876 212.949 210.752 212.949C211.429 212.949 211.974 213.062 212.386 213.29C212.802 213.512 213.124 213.773 213.352 214.071C213.584 214.369 213.763 214.632 213.891 214.859H214.019V209.455H216.143V224H214.069V222.303H213.891C213.763 222.535 213.579 222.8 213.337 223.098C213.101 223.396 212.774 223.657 212.357 223.879C211.941 224.102 211.401 224.213 210.738 224.213ZM211.207 222.402C211.817 222.402 212.334 222.241 212.755 221.919C213.181 221.592 213.503 221.14 213.721 220.562C213.943 219.985 214.055 219.312 214.055 218.545C214.055 217.788 213.946 217.125 213.728 216.557C213.51 215.989 213.191 215.546 212.769 215.229C212.348 214.911 211.827 214.753 211.207 214.753C210.567 214.753 210.035 214.919 209.609 215.25C209.183 215.581 208.861 216.034 208.643 216.607C208.43 217.179 208.323 217.826 208.323 218.545C208.323 219.275 208.432 219.93 208.65 220.513C208.868 221.095 209.19 221.557 209.616 221.898C210.047 222.234 210.577 222.402 211.207 222.402ZM223.875 224.22C222.801 224.22 221.875 223.991 221.098 223.531C220.327 223.067 219.73 222.416 219.309 221.578C218.892 220.735 218.684 219.748 218.684 218.616C218.684 217.499 218.892 216.514 219.309 215.662C219.73 214.81 220.317 214.144 221.07 213.666C221.828 213.188 222.713 212.949 223.726 212.949C224.342 212.949 224.938 213.051 225.516 213.254C226.094 213.458 226.612 213.777 227.071 214.213C227.531 214.649 227.893 215.214 228.158 215.911C228.423 216.602 228.556 217.442 228.556 218.432V219.185H219.884V217.594H226.475C226.475 217.035 226.361 216.54 226.134 216.109C225.907 215.674 225.587 215.33 225.175 215.08C224.768 214.829 224.29 214.703 223.74 214.703C223.144 214.703 222.623 214.85 222.178 215.143C221.738 215.432 221.397 215.811 221.155 216.28C220.918 216.744 220.8 217.248 220.8 217.793V219.036C220.8 219.765 220.928 220.385 221.184 220.896C221.444 221.408 221.806 221.798 222.27 222.068C222.734 222.333 223.276 222.466 223.897 222.466C224.299 222.466 224.666 222.409 224.998 222.295C225.329 222.177 225.615 222.002 225.857 221.77C226.098 221.538 226.283 221.251 226.411 220.911L228.421 221.273C228.26 221.865 227.971 222.383 227.554 222.828C227.142 223.268 226.624 223.612 225.999 223.858C225.379 224.099 224.671 224.22 223.875 224.22ZM241.084 224H236.375V209.455H241.233C242.658 209.455 243.882 209.746 244.905 210.328C245.928 210.906 246.712 211.737 247.256 212.821C247.805 213.901 248.08 215.196 248.08 216.706C248.08 218.221 247.803 219.523 247.249 220.612C246.7 221.701 245.904 222.539 244.863 223.126C243.821 223.709 242.561 224 241.084 224ZM238.57 222.082H240.963C242.071 222.082 242.992 221.874 243.726 221.457C244.46 221.036 245.009 220.428 245.374 219.632C245.739 218.832 245.921 217.857 245.921 216.706C245.921 215.565 245.739 214.597 245.374 213.801C245.014 213.006 244.477 212.402 243.762 211.99C243.047 211.578 242.159 211.372 241.098 211.372H238.57V222.082ZM255.34 224.22C254.265 224.22 253.34 223.991 252.563 223.531C251.791 223.067 251.195 222.416 250.773 221.578C250.357 220.735 250.148 219.748 250.148 218.616C250.148 217.499 250.357 216.514 250.773 215.662C251.195 214.81 251.782 214.144 252.535 213.666C253.292 213.188 254.178 212.949 255.191 212.949C255.807 212.949 256.403 213.051 256.981 213.254C257.558 213.458 258.077 213.777 258.536 214.213C258.996 214.649 259.358 215.214 259.623 215.911C259.888 216.602 260.021 217.442 260.021 218.432V219.185H251.349V217.594H257.94C257.94 217.035 257.826 216.54 257.599 216.109C257.371 215.674 257.052 215.33 256.64 215.08C256.233 214.829 255.754 214.703 255.205 214.703C254.609 214.703 254.088 214.85 253.643 215.143C253.202 215.432 252.862 215.811 252.62 216.28C252.383 216.744 252.265 217.248 252.265 217.793V219.036C252.265 219.765 252.393 220.385 252.648 220.896C252.909 221.408 253.271 221.798 253.735 222.068C254.199 222.333 254.741 222.466 255.362 222.466C255.764 222.466 256.131 222.409 256.462 222.295C256.794 222.177 257.08 222.002 257.322 221.77C257.563 221.538 257.748 221.251 257.876 220.911L259.886 221.273C259.725 221.865 259.436 222.383 259.019 222.828C258.607 223.268 258.089 223.612 257.464 223.858C256.844 224.099 256.136 224.22 255.34 224.22ZM269.287 219.476V213.091H271.418V224H269.33V222.111H269.216C268.965 222.693 268.563 223.179 268.009 223.567C267.46 223.95 266.775 224.142 265.956 224.142C265.256 224.142 264.635 223.988 264.096 223.68C263.56 223.368 263.139 222.906 262.831 222.295C262.528 221.685 262.377 220.929 262.377 220.03V213.091H264.5V219.774C264.5 220.518 264.706 221.109 265.118 221.55C265.53 221.99 266.065 222.21 266.723 222.21C267.121 222.21 267.516 222.111 267.909 221.912C268.307 221.713 268.636 221.412 268.897 221.01C269.162 220.607 269.292 220.096 269.287 219.476ZM282.446 215.754L280.521 216.095C280.441 215.849 280.313 215.615 280.138 215.392C279.967 215.17 279.735 214.987 279.442 214.845C279.148 214.703 278.781 214.632 278.341 214.632C277.74 214.632 277.238 214.767 276.835 215.037C276.433 215.302 276.232 215.645 276.232 216.067C276.232 216.431 276.366 216.725 276.636 216.947C276.906 217.17 277.342 217.352 277.943 217.494L279.676 217.892C280.68 218.124 281.428 218.482 281.92 218.964C282.413 219.447 282.659 220.075 282.659 220.847C282.659 221.5 282.47 222.082 282.091 222.594C281.717 223.1 281.194 223.498 280.521 223.787C279.854 224.076 279.08 224.22 278.199 224.22C276.977 224.22 275.981 223.96 275.209 223.439C274.437 222.913 273.964 222.168 273.788 221.202L275.841 220.889C275.969 221.424 276.232 221.829 276.629 222.104C277.027 222.374 277.545 222.509 278.185 222.509C278.881 222.509 279.437 222.364 279.854 222.075C280.27 221.782 280.479 221.424 280.479 221.003C280.479 220.662 280.351 220.375 280.095 220.143C279.844 219.911 279.458 219.736 278.938 219.618L277.091 219.213C276.073 218.981 275.32 218.612 274.832 218.105C274.349 217.598 274.108 216.957 274.108 216.18C274.108 215.536 274.288 214.973 274.648 214.49C275.008 214.007 275.505 213.631 276.139 213.361C276.774 213.086 277.5 212.949 278.32 212.949C279.499 212.949 280.427 213.205 281.104 213.716C281.781 214.223 282.228 214.902 282.446 215.754Z" fill="#014874"/>
<path d="M114.167 224H109.01V209.455H114.209C115.672 209.455 116.932 209.746 117.988 210.328C119.043 210.906 119.855 211.737 120.424 212.821C120.997 213.905 121.283 215.203 121.283 216.713C121.283 218.228 120.997 219.53 120.424 220.619C119.855 221.708 119.039 222.544 117.973 223.126C116.913 223.709 115.644 224 114.167 224ZM112.086 221.365H114.039C114.948 221.365 115.712 221.204 116.333 220.882C116.958 220.555 117.426 220.051 117.739 219.369C118.056 218.683 118.215 217.797 118.215 216.713C118.215 215.638 118.056 214.76 117.739 214.078C117.426 213.396 116.96 212.894 116.34 212.572C115.72 212.25 114.955 212.089 114.046 212.089H112.086V221.365ZM128.476 224.213C127.354 224.213 126.388 223.986 125.578 223.531C124.773 223.072 124.153 222.423 123.717 221.585C123.282 220.742 123.064 219.746 123.064 218.595C123.064 217.473 123.282 216.488 123.717 215.641C124.153 214.793 124.766 214.133 125.557 213.659C126.352 213.186 127.285 212.949 128.355 212.949C129.075 212.949 129.745 213.065 130.365 213.297C130.99 213.524 131.535 213.867 131.999 214.327C132.467 214.786 132.832 215.364 133.092 216.06C133.353 216.751 133.483 217.561 133.483 218.489V219.32H124.271V217.445H130.635C130.635 217.009 130.54 216.623 130.351 216.287C130.161 215.951 129.899 215.688 129.562 215.499C129.231 215.304 128.845 215.207 128.405 215.207C127.946 215.207 127.538 215.314 127.183 215.527C126.833 215.735 126.558 216.017 126.359 216.372C126.161 216.723 126.059 217.113 126.054 217.544V219.327C126.054 219.866 126.153 220.333 126.352 220.726C126.556 221.119 126.842 221.422 127.212 221.635C127.581 221.848 128.019 221.955 128.526 221.955C128.862 221.955 129.17 221.907 129.449 221.812C129.728 221.718 129.967 221.576 130.166 221.386C130.365 221.197 130.517 220.965 130.621 220.69L133.419 220.875C133.277 221.547 132.986 222.134 132.545 222.636C132.11 223.134 131.546 223.522 130.855 223.801C130.169 224.076 129.375 224.213 128.476 224.213ZM135.457 224V213.091H138.391V214.994H138.504C138.703 214.317 139.037 213.806 139.506 213.46C139.974 213.11 140.514 212.935 141.125 212.935C141.277 212.935 141.44 212.944 141.615 212.963C141.79 212.982 141.944 213.008 142.077 213.041V215.726C141.935 215.683 141.738 215.645 141.487 215.612C141.236 215.579 141.007 215.562 140.798 215.562C140.353 215.562 139.955 215.66 139.605 215.854C139.259 216.043 138.985 216.308 138.781 216.649C138.582 216.99 138.483 217.383 138.483 217.828V224H135.457ZM143.641 224V213.091H146.574V214.994H146.688C146.887 214.317 147.221 213.806 147.689 213.46C148.158 213.11 148.698 212.935 149.309 212.935C149.46 212.935 149.623 212.944 149.799 212.963C149.974 212.982 150.128 213.008 150.26 213.041V215.726C150.118 215.683 149.922 215.645 149.671 215.612C149.42 215.579 149.19 215.562 148.982 215.562C148.537 215.562 148.139 215.66 147.789 215.854C147.443 216.043 147.168 216.308 146.965 216.649C146.766 216.99 146.667 217.383 146.667 217.828V224H143.641ZM154.623 224.206C153.927 224.206 153.307 224.085 152.762 223.844C152.218 223.598 151.787 223.235 151.469 222.757C151.157 222.274 151.001 221.673 151.001 220.953C151.001 220.347 151.112 219.838 151.335 219.426C151.557 219.014 151.86 218.683 152.244 218.432C152.627 218.181 153.063 217.991 153.55 217.864C154.043 217.736 154.559 217.646 155.099 217.594C155.733 217.527 156.245 217.466 156.633 217.409C157.021 217.348 157.303 217.258 157.478 217.139C157.653 217.021 157.741 216.846 157.741 216.614V216.571C157.741 216.121 157.599 215.773 157.315 215.527C157.035 215.281 156.638 215.158 156.121 215.158C155.577 215.158 155.144 215.278 154.822 215.52C154.5 215.757 154.287 216.055 154.183 216.415L151.384 216.188C151.526 215.525 151.806 214.952 152.222 214.469C152.639 213.981 153.176 213.607 153.835 213.347C154.497 213.081 155.264 212.949 156.136 212.949C156.742 212.949 157.322 213.02 157.876 213.162C158.434 213.304 158.929 213.524 159.36 213.822C159.796 214.121 160.139 214.504 160.39 214.973C160.641 215.437 160.766 215.993 160.766 216.642V224H157.897V222.487H157.812C157.637 222.828 157.402 223.129 157.109 223.389C156.815 223.645 156.462 223.846 156.05 223.993C155.638 224.135 155.163 224.206 154.623 224.206ZM155.489 222.118C155.934 222.118 156.327 222.03 156.668 221.855C157.009 221.675 157.277 221.434 157.471 221.131C157.665 220.828 157.762 220.484 157.762 220.101V218.943C157.667 219.005 157.537 219.062 157.371 219.114C157.21 219.161 157.028 219.206 156.825 219.249C156.621 219.286 156.417 219.322 156.214 219.355C156.01 219.384 155.826 219.41 155.66 219.433C155.305 219.485 154.995 219.568 154.729 219.682C154.464 219.795 154.258 219.949 154.112 220.143C153.965 220.333 153.891 220.57 153.891 220.854C153.891 221.266 154.04 221.58 154.339 221.798C154.642 222.011 155.025 222.118 155.489 222.118ZM163.114 224V213.091H165.997V215.016H166.125C166.352 214.376 166.731 213.872 167.261 213.503C167.792 213.134 168.426 212.949 169.165 212.949C169.913 212.949 170.55 213.136 171.075 213.51C171.601 213.879 171.951 214.381 172.126 215.016H172.24C172.463 214.391 172.865 213.891 173.447 213.517C174.035 213.138 174.728 212.949 175.528 212.949C176.546 212.949 177.373 213.273 178.007 213.922C178.646 214.566 178.966 215.48 178.966 216.663V224H175.947V217.26C175.947 216.654 175.786 216.199 175.464 215.896C175.143 215.593 174.74 215.442 174.257 215.442C173.708 215.442 173.279 215.617 172.972 215.967C172.664 216.313 172.51 216.77 172.51 217.338V224H169.577V217.196C169.577 216.661 169.423 216.235 169.115 215.918C168.812 215.6 168.412 215.442 167.915 215.442C167.579 215.442 167.276 215.527 167.006 215.697C166.741 215.863 166.53 216.098 166.374 216.401C166.217 216.699 166.139 217.049 166.139 217.452V224H163.114ZM184.467 224.206C183.771 224.206 183.15 224.085 182.606 223.844C182.061 223.598 181.63 223.235 181.313 222.757C181.001 222.274 180.844 221.673 180.844 220.953C180.844 220.347 180.956 219.838 181.178 219.426C181.401 219.014 181.704 218.683 182.087 218.432C182.471 218.181 182.906 217.991 183.394 217.864C183.887 217.736 184.403 217.646 184.942 217.594C185.577 217.527 186.088 217.466 186.477 217.409C186.865 217.348 187.147 217.258 187.322 217.139C187.497 217.021 187.585 216.846 187.585 216.614V216.571C187.585 216.121 187.442 215.773 187.158 215.527C186.879 215.281 186.481 215.158 185.965 215.158C185.421 215.158 184.987 215.278 184.665 215.52C184.344 215.757 184.13 216.055 184.026 216.415L181.228 216.188C181.37 215.525 181.649 214.952 182.066 214.469C182.483 213.981 183.02 213.607 183.678 213.347C184.341 213.081 185.108 212.949 185.979 212.949C186.585 212.949 187.165 213.02 187.719 213.162C188.278 213.304 188.773 213.524 189.204 213.822C189.639 214.121 189.983 214.504 190.234 214.973C190.485 215.437 190.61 215.993 190.61 216.642V224H187.741V222.487H187.656C187.48 222.828 187.246 223.129 186.952 223.389C186.659 223.645 186.306 223.846 185.894 223.993C185.482 224.135 185.006 224.206 184.467 224.206ZM185.333 222.118C185.778 222.118 186.171 222.03 186.512 221.855C186.853 221.675 187.121 221.434 187.315 221.131C187.509 220.828 187.606 220.484 187.606 220.101V218.943C187.511 219.005 187.381 219.062 187.215 219.114C187.054 219.161 186.872 219.206 186.668 219.249C186.465 219.286 186.261 219.322 186.058 219.355C185.854 219.384 185.669 219.41 185.504 219.433C185.148 219.485 184.838 219.568 184.573 219.682C184.308 219.795 184.102 219.949 183.955 220.143C183.808 220.333 183.735 220.57 183.735 220.854C183.735 221.266 183.884 221.58 184.183 221.798C184.486 222.011 184.869 222.118 185.333 222.118ZM192.957 224V213.091H195.891V214.994H196.004C196.203 214.317 196.537 213.806 197.006 213.46C197.474 213.11 198.014 212.935 198.625 212.935C198.777 212.935 198.94 212.944 199.115 212.963C199.29 212.982 199.444 213.008 199.577 213.041V215.726C199.435 215.683 199.238 215.645 198.987 215.612C198.736 215.579 198.507 215.562 198.298 215.562C197.853 215.562 197.455 215.66 197.105 215.854C196.759 216.043 196.485 216.308 196.281 216.649C196.082 216.99 195.983 217.383 195.983 217.828V224H192.957Z" fill="#1D70B6"/>
</svg>
