<svg width="368" height="176" viewBox="0 0 368 176" fill="none" xmlns="http://www.w3.org/2000/svg">
<path d="M0 20C0 8.9543 8.95431 0 20 0H50.7586V149.103H0V20Z" fill="#014874"/>
<path fill-rule="evenodd" clip-rule="evenodd" d="M219.69 10C219.69 4.47715 224.167 0 229.69 0H274.897H276H314.965C316.543 0 318.095 0.107388 319.615 0.315252C321.173 0.107331 322.764 0 324.379 0C344.09 0 360.069 15.9788 360.069 35.6896V38.8621C360.069 53.8951 350.774 66.7573 337.618 72.0156C354.912 75.2494 368 90.4238 368 108.655V111.828C368 132.414 351.311 149.103 330.724 149.103C329.232 149.103 327.76 149.016 326.314 148.845C324.934 149.016 323.529 149.103 322.103 149.103H278.069C277.36 149.103 276.668 149.03 276 148.889V149.103H219.69V10ZM283.931 34.1034H312.483C319.053 34.1034 324.379 39.4297 324.379 45.9999C324.379 52.5702 319.053 57.8965 312.483 57.8965H283.931V34.1034ZM312.483 98.3448H283.931V122.138H312.483C319.053 122.138 324.379 116.812 324.379 110.241C324.379 103.671 319.053 98.3448 312.483 98.3448Z" fill="#1D70B6"/>
<path d="M204.409 37.4695L203.436 35.236L201.88 37.1112L178.88 64.8344L178.329 65.4984L178.626 66.3085C182.333 76.42 188.212 91.7298 193.804 104.798C196.598 111.329 199.332 117.327 201.695 121.844C202.875 124.099 203.98 126.018 204.968 127.46C205.462 128.181 205.946 128.81 206.414 129.312C206.861 129.79 207.389 130.257 207.986 130.517C211.675 132.129 214.741 134.918 216.498 136.884L192.51 147.57L191.22 148.145L191.716 149.467C191.997 150.213 192.553 153.05 191.659 156.917C190.285 162.864 193.142 168.613 199.921 172.42C203.514 174.439 206.397 174.21 208.744 173.719C209.23 173.618 209.642 173.519 210.017 173.43C210.597 173.291 211.088 173.174 211.624 173.099C212.401 172.991 212.984 173.033 213.53 173.275C216.738 174.699 219.916 174.483 221.243 174.152L221.267 174.146L221.291 174.139C221.772 174.002 222.351 173.667 222.963 173.252C223.621 172.804 224.459 172.163 225.491 171.284C227.554 169.526 230.44 166.776 234.274 162.628C238.004 158.593 241.059 156.26 243.314 154.974C244.441 154.332 245.352 153.96 246.034 153.764C246.52 153.624 246.847 153.586 247.033 153.581C258.288 159.341 272.688 163.091 284.052 165.213C289.793 166.284 294.8 166.948 298.291 167.243C300.025 167.39 301.432 167.451 302.381 167.416C302.814 167.4 303.311 167.361 303.708 167.23C303.82 167.194 303.976 167.133 304.139 167.032C304.293 166.936 304.549 166.745 304.729 166.407C304.85 166.178 304.91 165.931 304.914 165.687L305.268 165.805L305.418 165.855L305.576 165.872C306.798 166.008 308.617 166.137 310.048 166.057C310.707 166.021 311.52 165.932 312.136 165.642C312.428 165.504 312.974 165.182 313.213 164.516C313.864 164.641 314.614 164.839 315.215 165.024L315.392 165.078L315.576 165.088C316.866 165.155 318.781 165.162 320.217 164.92C320.584 164.858 320.959 164.774 321.303 164.654C321.624 164.542 322.039 164.359 322.385 164.037C322.777 163.671 323.112 163.081 323.014 162.338C323.008 162.291 323 162.244 322.99 162.198C327.262 163.535 330.865 163.796 333.633 163.549C335.13 163.416 336.393 163.133 337.39 162.785C338.343 162.452 339.185 162.013 339.715 161.484C340.044 161.156 340.408 160.607 340.35 159.876C340.295 159.184 339.887 158.721 339.601 158.473C339.249 158.167 338.791 157.935 338.335 157.755C345.459 156.842 349.183 153.835 350.307 151.591L351.626 148.956L348.719 149.44C347.085 149.712 345.436 149.824 343.876 149.828C345.302 149.366 346.67 148.787 347.9 148.174C349.449 147.401 350.837 146.546 351.917 145.736C352.456 145.332 352.936 144.925 353.326 144.532C353.695 144.16 354.066 143.719 354.29 143.24L355.988 139.607L352.323 141.234C352.323 141.234 352.164 141.292 351.753 141.383C351.379 141.466 350.872 141.561 350.244 141.656C348.989 141.846 347.282 142.033 345.232 142.136C341.13 142.343 335.698 142.213 329.806 141.13C322.453 139.777 313.563 136.373 306.366 133.075C302.779 131.431 299.645 129.829 297.369 128.547C296.229 127.905 295.323 127.354 294.69 126.925C294.372 126.71 294.145 126.541 293.999 126.418C293.985 126.406 293.972 126.395 293.96 126.385C293.96 126.365 293.964 126.347 293.97 126.324C294 126.209 294.112 125.954 294.487 125.517C295.254 124.624 296.703 123.432 299.106 121.633C301.758 119.647 303.776 119.847 304.726 120.189C304.813 120.659 304.979 121.176 305.276 121.634C305.559 122.071 306.01 122.524 306.682 122.74C307.357 122.957 308.047 122.869 308.677 122.617C309.533 122.275 310.212 121.612 310.723 120.895C311.246 120.164 311.667 119.276 311.977 118.321C312.593 116.417 312.819 114.078 312.367 111.823C312.098 110.48 311.19 109.562 310.193 108.963C309.208 108.371 308.01 108.006 306.833 107.775C304.835 107.382 302.62 107.325 300.934 107.401C299.485 105.585 297.324 104.637 294.971 104.231C292.314 103.772 289.227 103.965 286.128 104.492C280.308 105.481 274.097 107.711 269.852 109.591C251.865 95.87 236.759 80.6652 225.521 67.4783C214.103 54.0821 206.765 42.8718 204.409 37.4695ZM321.997 160.629C321.998 160.63 321.998 160.631 321.999 160.632C321.996 160.628 321.996 160.627 321.997 160.629Z" fill="#1D70B6" stroke="white" stroke-width="3"/>
<path fill-rule="evenodd" clip-rule="evenodd" d="M64.2414 10C64.2414 4.47715 68.7185 0 74.2414 0H119.448H120.552H159.517C161.094 0 162.647 0.107388 164.167 0.315252C165.725 0.107331 167.316 0 168.931 0C188.642 0 204.621 15.9788 204.621 35.6896V38.8621C204.621 53.8951 195.326 66.7573 182.17 72.0156C199.463 75.2494 212.552 90.4238 212.552 108.655V111.828C212.552 132.414 195.863 149.103 175.276 149.103C173.784 149.103 172.312 149.016 170.866 148.845C169.486 149.016 168.081 149.103 166.655 149.103H122.621C121.911 149.103 121.219 149.03 120.552 148.889V149.103H64.2414V10ZM128.483 34.1034H157.035C163.605 34.1034 168.931 39.4297 168.931 45.9999C168.931 52.5702 163.605 57.8965 157.035 57.8965H128.483V34.1034ZM157.035 98.3448H128.483V122.138H157.035C163.605 122.138 168.931 116.812 168.931 110.241C168.931 103.671 163.605 98.3448 157.035 98.3448Z" fill="#014874"/>
</svg>
